<?xml version="1.0" encoding="utf-8"?>
<!-- Generator: Adobe Illustrator 27.7.0, SVG Export Plug-In . SVG Version: 6.00 Build 0)  -->
<svg version="1.1" id="katman" xmlns="http://www.w3.org/2000/svg" xmlns:xlink="http://www.w3.org/1999/xlink" x="0px" y="0px"
	 viewBox="0 0 50 50" style="enable-background:new 0 0 50 50;" xml:space="preserve">
<style type="text/css">
	.st0{fill:#1B2142;stroke:#000000;}
	.st1{fill:#46A3C8;}
	.st2{fill:none;stroke:#FFFFFF;}
</style>
<path class="st0" d="M6.54,25.77c-0.01,0.32,2.31,4.18,2.31,4.18s-6.33,4.42-7.65,5.89C-0.11,37.32,4.3,29.17,6.54,25.77z"/>
<g>
	<path class="st1" d="M24.71,47.16c11.92-12.12,16.54-19.29,23.2-32.38c-6.95,8.95-22.99,13.38-23.2,13.63
		c-0.21,0.25-13.63-4.17-22.66-13.63C10.05,27.88,14.38,35.31,24.71,47.16z"/>
	<path class="st2" d="M24.71,47.16c11.92-12.12,16.54-19.29,23.2-32.38c-6.95,8.95-22.99,13.38-23.2,13.63
		c-0.21,0.25-13.63-4.17-22.66-13.63C10.05,27.88,14.38,35.31,24.71,47.16z"/>
</g>
<path class="st0" d="M25.56,3c-6.89,7.02-9.85,10.04-14.54,16.81l7.58,4.76c0,0,6.51-2.69,6.96-2.9c0.45-0.21,5.57,2.9,5.57,2.9
	l7.81-4.76C38.94,19.81,31.32,8.62,25.56,3z"/>
<path class="st0" d="M43.96,25.77c0.01,0.32-2.31,4.18-2.31,4.18s6.33,4.42,7.65,5.89C50.61,37.32,46.19,29.17,43.96,25.77z"/>
</svg>
